<svg xmlns="http://www.w3.org/2000/svg" width="500px" height="500px" class="nvd3-svg"><g class="nvd3 nv-wrap nv-pieChart" transform="translate(20,30)"><g><g class="nv-pieWrap nvd3-svg"><g class="nvd3 nv-wrap nv-pie nv-chart-1999" transform="translate(0,0)"><g><g class="nv-pie" transform="translate(280,225)"><g class="nv-slice" fill="#1f77b4" stroke="#1f77b4"><path d="M1.1021821192326179e-14,-180A180,180 0 0,1 85.80895860412588,-158.23028352144038L0,0Z" style="fill-opacity: .7; stroke: #fff; stroke-opacity: 1; stroke-width: 1px;"></path></g><g class="nv-slice" fill="#aec7e8" stroke="#aec7e8"><path d="M85.80895860412588,-158.23028352144038A180,180 0 0,1 85.80895860412588,-158.23028352144038L0,0Z" style="fill-opacity: .7; stroke: #fff; stroke-opacity: 1; stroke-width: 1px;"></path></g><g class="nv-slice" fill="#ff7f0e" stroke="#ff7f0e"><path d="M85.80895860412588,-158.23028352144038A180,180 0 0,1 155.65135629197516,-90.40273936374165L0,0Z" style="fill-opacity: .7; stroke: #fff; stroke-opacity: 1; stroke-width: 1px;"></path></g><g class="nv-slice" fill="#ffbb78" stroke="#ffbb78"><path d="M155.65135629197516,-90.40273936374165A180,180 0 1,1 -166.6157498104286,68.11161365808815L0,0Z" style="fill-opacity: .7; stroke: #fff; stroke-opacity: 1; stroke-width: 1px;"></path></g><g class="nv-slice" fill="#2ca02c" stroke="#2ca02c"><path d="M-166.6157498104286,68.11161365808815A180,180 0 0,1 -166.83584941948433,67.57069888997115L0,0Z" style="fill-opacity: .7; stroke: #fff; stroke-opacity: 1; stroke-width: 1px;"></path></g><g class="nv-slice" fill="#98df8a" stroke="#98df8a"><path d="M-166.83584941948433,67.57069888997115A180,180 0 0,1 -56.32529151783218,-170.96040926317187L0,0Z" style="fill-opacity: .7; stroke: #fff; stroke-opacity: 1; stroke-width: 1px;"></path></g><g class="nv-slice" fill="#d62728" stroke="#d62728"><path d="M-56.32529151783218,-170.96040926317187A180,180 0 0,1 -15.422630078119733,-179.33806757482773L0,0Z" style="fill-opacity: .7; stroke: #fff; stroke-opacity: 1; stroke-width: 1px;"></path></g><g class="nv-slice" fill="#ff9896" stroke="#ff9896"><path d="M-15.422630078119733,-179.33806757482773A180,180 0 0,1 -3.3065463576978534e-14,-180L0,0Z" style="fill-opacity: .7; stroke: #fff; stroke-opacity: 1; stroke-width: 1px;"></path></g></g><g class="nv-pieLabels" transform="translate(280,225)"><g class="nv-label" transform="translate(51.640974706366194,-203.55149159703166)"><text style="fill: #000; font: normal 12px Arial; text-anchor: middle;">One</text></g><g class="nv-label" transform="translate(100.11045170481353,-184.60199744168045)"><text style="fill: #000; font: normal 12px Arial; text-anchor: middle;"></text></g><g class="nv-label" transform="translate(146.30351137355154,-150.64953554448508)"><text style="fill: #000; font: normal 12px Arial; text-anchor: middle;">Three</text></g><g class="nv-label" transform="translate(92.68764315635465,188.43832095972482)"><text style="fill: #000; font: normal 12px Arial; text-anchor: middle;">Four</text></g><g class="nv-label" transform="translate(-194.51368880833422,79.14811978925664)"><text style="fill: #000; font: normal 12px Arial; text-anchor: middle;"></text></g><g class="nv-label" transform="translate(-190.54383490054622,-88.27823617060658)"><text style="fill: #000; font: normal 12px Arial; text-anchor: middle;">Six</text></g><g class="nv-label" transform="translate(-42.13730212667861,-205.72906398825862)"><text style="fill: #000; font: normal 12px Arial; text-anchor: middle;">Seven</text></g><g class="nv-label" transform="translate(-9.004816604662306,-209.80684754772997)"><text style="fill: #000; font: normal 12px Arial; text-anchor: middle;"></text></g></g></g></g></g><g class="nv-legendWrap"></g></g></g></svg>
